<svg xmlns="http://www.w3.org/2000/svg" viewBox="0 0 120 119.99"><defs><style>.cls-1{fill:#1d1d1b;}.cls-2{fill:#9b1622;}</style></defs><title>dog-danger</title><g id="Layer_2" data-name="Layer 2"><g id="Layer_1-2" data-name="Layer 1"><path class="cls-1" d="M20,34.32A6.17,6.17,0,0,1,22,34.1L25,33.51a4.65,4.65,0,0,0,2-.69c.35-.24.57-1.09,2-1.48s2.61-1.44,3.37-1.46c0,0,4.75-.83,6.48,1.64s5.71,9.49,5.85,9.57,2.14,2.41,2.5,2.63a3.48,3.48,0,0,0,1.27.69,20.36,20.36,0,0,1,3.54.45,40.41,40.41,0,0,0,5.47.71A125.12,125.12,0,0,0,70.79,45a16.74,16.74,0,0,1,10.67,2.1c4.92,1.19,10.67,5.4,14.61,8,3.44,2.27,10.78,3.42,10.78,3.42l.75.18c.76.87-.84,1-1.33,1-6.29.51-13.09-3.42-15.5-4.9a36,36,0,0,0-4.14-2,22.27,22.27,0,0,1,1.6,6.35A47.84,47.84,0,0,0,89.64,67a28.06,28.06,0,0,0,3.15,6.27c1.15,1.48,2.67,2.47,2.8,3.24s.48,3.52.54,4.39a36.33,36.33,0,0,0,1.58,6.23,2,2,0,0,1-.11,2.31c-.54.69-1.3,1.78-1.86,1.84s-2.27.16-2.79.22-1.43-.1-1.5-.3a5.11,5.11,0,0,1,.25-1.27c.19-.38.62-1.44,1-1.64s1.07-.26,1.44-.63.56-4.92-2.12-9.37l0,6.56a1.38,1.38,0,0,1,0,1.38,2.5,2.5,0,0,0-.71,1.54c-.12.83-1.15.79-1.91,1.11a5.91,5.91,0,0,1-3.19.1c-.28-.26-.21-.49,0-.95s1.06-1.84,1.81-2,1.26-.4,1.31-.71,0-7.35-1-8-9.9-8.2-11.8-14.59c0,0-2.19-3.44-8.3-1.36s-14,5.93-16.43,6.27a10.35,10.35,0,0,1-3.71-.28,9,9,0,0,1-.66,3.08,11.32,11.32,0,0,0-1,4.17c0,.93.72,8.8,1,10s.08,2.39-.48,2.61-.75.55-.73,2S46.67,92,46,92.59s-.91,1.84-1.36,2a10.77,10.77,0,0,1-2.31.53c-.45,0-3.75.3-3.79-.28,0-1.32,1.74-2.19,1.74-2.19s-2,.59-2.69.12c-.53-.34.91-2.59,1.79-3.1A13.77,13.77,0,0,1,40.79,89,28.63,28.63,0,0,0,41,80.2C40.34,74.86,39,68.63,38.81,67.7s-.53-4.15-.53-4.15A16.36,16.36,0,0,1,35,55.76a49.83,49.83,0,0,1-.67-5.57c0-.14,0-.3-.06-.49-.25-1.62-.08-3.87-2-6.34a7.11,7.11,0,0,0-3.48-2.63s0,0-.07,0c-1.13-.53-3.72-.12-5-.51s-3.5-1.68-3.71-3S19.63,34.53,20,34.32Z"/><path class="cls-2" d="M60,0a60,60,0,1,0,60,60A60,60,0,0,0,60,0Zm0,111.92A51.93,51.93,0,1,1,111.93,60,51.92,51.92,0,0,1,60,111.92Z"/><polygon class="cls-2" points="22.28 103.05 16.95 97.75 97.74 16.94 103.07 22.26 22.28 103.05"/></g></g></svg>