<svg xmlns="http://www.w3.org/2000/svg" viewBox="0 0 120 120"><defs><style>.cls-1{fill:#fff;}</style></defs><title>facebook</title><g id="Layer_2" data-name="Layer 2"><g id="Layer_1-2" data-name="Layer 1"><path id="White" class="cls-1" d="M113.38,0H6.62A6.62,6.62,0,0,0,0,6.62V113.38A6.62,6.62,0,0,0,6.62,120H64.1V73.53H48.46V55.42H64.1V42.06c0-15.5,9.47-23.94,23.29-23.94a128.31,128.31,0,0,1,14,.71V35H91.77c-7.52,0-9,3.57-9,8.82V55.42h17.93L98.4,73.53H82.8V120h30.58a6.62,6.62,0,0,0,6.62-6.62V6.62A6.62,6.62,0,0,0,113.38,0Z"/></g></g></svg>