<svg xmlns="http://www.w3.org/2000/svg" viewBox="0 0 120 120"><defs><style>.cls-1{fill:#fff;}</style></defs><title>instagram</title><g id="Layer_2" data-name="Layer 2"><g id="Layer_1-2" data-name="Layer 1"><path class="cls-1" d="M60,10.86c16,0,17.71,0,24,.57,5.71,0,9.14,1.14,10.86,2.29a18.09,18.09,0,0,1,6.86,4.57,18.09,18.09,0,0,1,4.57,6.86A55.25,55.25,0,0,1,108.57,36c.57,6.29.57,8,.57,24s0,17.71-.57,24c0,5.71-1.14,9.14-2.29,10.86a21,21,0,0,1-11.43,11.43A55.25,55.25,0,0,1,84,108.57c-6.29.57-8,.57-24,.57s-17.71,0-24-.57c-5.71,0-9.14-1.14-10.86-2.29a18.09,18.09,0,0,1-6.86-4.57,18.09,18.09,0,0,1-4.57-6.86c-1.14-1.14-2.29-4.57-2.29-10.29-.57-6.29-.57-8-.57-24s0-17.71.57-24c0-5.71,1.14-9.14,2.29-10.86a18.09,18.09,0,0,1,4.57-6.86,18.09,18.09,0,0,1,6.86-4.57A55.25,55.25,0,0,1,36,12c6.29-1.14,8-1.14,24-1.14M60,0C43.43,0,41.71,0,35.43.57S24.57,1.71,21.14,3.43c-4,1.71-7.43,3.43-10.86,6.86S5.14,17.14,3.43,21.14s-2.29,8-2.86,14.29S0,44,0,60,0,78.29.57,84.57,1.71,95.43,3.43,98.86c1.71,4,3.43,7.43,6.86,10.86s6.86,5.14,10.86,6.86,8,2.29,14.29,2.86S44,120,60,120c16.57,0,18.29,0,24.57-.57s10.86-1.14,14.29-2.86c4-1.71,7.43-3.43,10.86-6.86s5.14-6.86,6.86-10.86,2.29-8,2.86-14.29.57-8,.57-24.57,0-18.29-.57-24.57-1.14-10.86-2.86-14.29c-1.71-4-3.43-7.43-6.86-10.86s-6.86-5.14-10.86-6.86-8-2.29-14.29-2.86S76.57,0,60,0Z"/><path class="cls-1" d="M60,29.14A30.86,30.86,0,1,0,90.86,60,30.73,30.73,0,0,0,60,29.14ZM60,80a20,20,0,0,1,0-40,20,20,0,0,1,0,40Z"/><circle class="cls-1" cx="92" cy="28" r="7.43"/></g></g></svg>